<?xml version="1.0" encoding="utf-8" standalone="no"?>
<!DOCTYPE svg PUBLIC "-//W3C//DTD SVG 1.1//EN"
  "http://www.w3.org/Graphics/SVG/1.1/DTD/svg11.dtd">
<svg xmlns:xlink="http://www.w3.org/1999/xlink" width="576pt" height="576pt" viewBox="0 0 576 576" xmlns="http://www.w3.org/2000/svg" version="1.1">
 <metadata>
  <rdf:RDF xmlns:dc="http://purl.org/dc/elements/1.1/" xmlns:cc="http://creativecommons.org/ns#" xmlns:rdf="http://www.w3.org/1999/02/22-rdf-syntax-ns#">
   <cc:Work>
    <dc:type rdf:resource="http://purl.org/dc/dcmitype/StillImage"/>
    <dc:date>2025-05-21T17:04:54.988291</dc:date>
    <dc:format>image/svg+xml</dc:format>
    <dc:creator>
     <cc:Agent>
      <dc:title>Matplotlib v3.9.2, https://matplotlib.org/</dc:title>
     </cc:Agent>
    </dc:creator>
   </cc:Work>
  </rdf:RDF>
 </metadata>
 <defs>
  <style type="text/css">*{stroke-linejoin: round; stroke-linecap: butt}</style>
 </defs>
 <g id="figure_1">
  <g id="patch_1">
   <path d="M 0 576 
L 576 576 
L 576 0 
L 0 0 
z
" style="fill: #ffffff"/>
  </g>
  <g id="axes_1">
   <g id="patch_2">
    <path d="M 351.714 306.51975 
C 351.714 287.515484 347.970574 268.69601 340.697956 251.138358 
C 333.425338 233.580705 322.764963 217.626326 309.326917 204.18828 
C 295.888872 190.750235 279.934492 180.089859 262.37684 172.817241 
C 244.819187 165.544624 225.999714 161.801198 206.995448 161.801198 
C 187.991181 161.801198 169.171708 165.544624 151.614055 172.817241 
C 134.056403 180.089859 118.102023 190.750235 104.663978 204.18828 
C 91.225932 217.626326 80.565557 233.580705 73.292939 251.138358 
C 66.020321 268.69601 62.276895 287.515484 62.276895 306.51975 
C 62.276895 325.524016 66.020321 344.34349 73.292939 361.901142 
C 80.565557 379.458795 91.225932 395.413174 104.663978 408.85122 
C 118.102023 422.289265 134.056403 432.949641 151.614055 440.222259 
C 169.171708 447.494876 187.991181 451.238302 206.995448 451.238302 
C 225.999714 451.238302 244.819187 447.494876 262.37684 440.222259 
C 279.934492 432.949641 295.888872 422.289265 309.326917 408.85122 
C 322.764963 395.413174 333.425338 379.458795 340.697956 361.901142 
C 347.970574 344.34349 351.714 325.524016 351.714 306.51975 
M 206.995448 306.51975 
C 206.995448 306.51975 206.995448 306.51975 206.995448 306.51975 
C 206.995448 306.51975 206.995448 306.51975 206.995448 306.51975 
C 206.995448 306.51975 206.995448 306.51975 206.995448 306.51975 
C 206.995448 306.51975 206.995448 306.51975 206.995448 306.51975 
C 206.995448 306.51975 206.995448 306.51975 206.995448 306.51975 
C 206.995448 306.51975 206.995448 306.51975 206.995448 306.51975 
C 206.995448 306.51975 206.995448 306.51975 206.995448 306.51975 
C 206.995448 306.51975 206.995448 306.51975 206.995448 306.51975 
C 206.995448 306.51975 206.995448 306.51975 206.995448 306.51975 
C 206.995448 306.51975 206.995448 306.51975 206.995448 306.51975 
C 206.995448 306.51975 206.995448 306.51975 206.995448 306.51975 
C 206.995448 306.51975 206.995448 306.51975 206.995448 306.51975 
C 206.995448 306.51975 206.995448 306.51975 206.995448 306.51975 
C 206.995448 306.51975 206.995448 306.51975 206.995448 306.51975 
C 206.995448 306.51975 206.995448 306.51975 206.995448 306.51975 
C 206.995448 306.51975 206.995448 306.51975 206.995448 306.51975 
z
" style="fill: #ffffff"/>
   </g>
   <g id="matplotlib.axis_1">
    <g id="xtick_1">
     <g id="line2d_1">
      <path d="M 206.995448 306.51975 
L 206.995448 161.801198 
" clip-path="url(#p3098786b94)" style="fill: none; stroke: #d1d5d8; stroke-opacity: 0.3; stroke-width: 1.5; stroke-linecap: round"/>
     </g>
     <g id="text_1">
      <!-- ELBFL -->
      <g style="fill: #262626" transform="translate(188.65326 145.403385) scale(0.12 -0.12)">
       <defs>
        <path id="ArialMT-45" d="M 506 0 
L 506 4581 
L 3819 4581 
L 3819 4041 
L 1113 4041 
L 1113 2638 
L 3647 2638 
L 3647 2100 
L 1113 2100 
L 1113 541 
L 3925 541 
L 3925 0 
L 506 0 
z
" transform="scale(0.015625)"/>
        <path id="ArialMT-4c" d="M 469 0 
L 469 4581 
L 1075 4581 
L 1075 541 
L 3331 541 
L 3331 0 
L 469 0 
z
" transform="scale(0.015625)"/>
        <path id="ArialMT-42" d="M 469 0 
L 469 4581 
L 2188 4581 
Q 2713 4581 3030 4442 
Q 3347 4303 3526 4014 
Q 3706 3725 3706 3409 
Q 3706 3116 3547 2856 
Q 3388 2597 3066 2438 
Q 3481 2316 3704 2022 
Q 3928 1728 3928 1328 
Q 3928 1006 3792 729 
Q 3656 453 3456 303 
Q 3256 153 2954 76 
Q 2653 0 2216 0 
L 469 0 
z
M 1075 2656 
L 2066 2656 
Q 2469 2656 2644 2709 
Q 2875 2778 2992 2937 
Q 3109 3097 3109 3338 
Q 3109 3566 3000 3739 
Q 2891 3913 2687 3977 
Q 2484 4041 1991 4041 
L 1075 4041 
L 1075 2656 
z
M 1075 541 
L 2216 541 
Q 2509 541 2628 563 
Q 2838 600 2978 687 
Q 3119 775 3209 942 
Q 3300 1109 3300 1328 
Q 3300 1584 3169 1773 
Q 3038 1963 2805 2039 
Q 2572 2116 2134 2116 
L 1075 2116 
L 1075 541 
z
" transform="scale(0.015625)"/>
        <path id="ArialMT-46" d="M 525 0 
L 525 4581 
L 3616 4581 
L 3616 4041 
L 1131 4041 
L 1131 2622 
L 3281 2622 
L 3281 2081 
L 1131 2081 
L 1131 0 
L 525 0 
z
" transform="scale(0.015625)"/>
       </defs>
       <use xlink:href="#ArialMT-45"/>
       <use xlink:href="#ArialMT-4c" x="66.699219"/>
       <use xlink:href="#ArialMT-42" x="122.314453"/>
       <use xlink:href="#ArialMT-46" x="189.013672"/>
       <use xlink:href="#ArialMT-4c" x="250.097656"/>
      </g>
     </g>
    </g>
    <g id="xtick_2">
     <g id="line2d_2">
      <path d="M 206.995448 306.51975 
L 292.058878 189.439982 
" clip-path="url(#p3098786b94)" style="fill: none; stroke: #d1d5d8; stroke-opacity: 0.3; stroke-width: 1.5; stroke-linecap: round"/>
     </g>
     <g id="text_2">
      <!-- Wrist Ext -->
      <g style="fill: #262626" transform="translate(279.628503 176.766338) scale(0.12 -0.12)">
       <defs>
        <path id="ArialMT-57" d="M 1294 0 
L 78 4581 
L 700 4581 
L 1397 1578 
Q 1509 1106 1591 641 
Q 1766 1375 1797 1488 
L 2669 4581 
L 3400 4581 
L 4056 2263 
Q 4303 1400 4413 641 
Q 4500 1075 4641 1638 
L 5359 4581 
L 5969 4581 
L 4713 0 
L 4128 0 
L 3163 3491 
Q 3041 3928 3019 4028 
Q 2947 3713 2884 3491 
L 1913 0 
L 1294 0 
z
" transform="scale(0.015625)"/>
        <path id="ArialMT-72" d="M 416 0 
L 416 3319 
L 922 3319 
L 922 2816 
Q 1116 3169 1280 3281 
Q 1444 3394 1641 3394 
Q 1925 3394 2219 3213 
L 2025 2691 
Q 1819 2813 1613 2813 
Q 1428 2813 1281 2702 
Q 1134 2591 1072 2394 
Q 978 2094 978 1738 
L 978 0 
L 416 0 
z
" transform="scale(0.015625)"/>
        <path id="ArialMT-69" d="M 425 3934 
L 425 4581 
L 988 4581 
L 988 3934 
L 425 3934 
z
M 425 0 
L 425 3319 
L 988 3319 
L 988 0 
L 425 0 
z
" transform="scale(0.015625)"/>
        <path id="ArialMT-73" d="M 197 991 
L 753 1078 
Q 800 744 1014 566 
Q 1228 388 1613 388 
Q 2000 388 2187 545 
Q 2375 703 2375 916 
Q 2375 1106 2209 1216 
Q 2094 1291 1634 1406 
Q 1016 1563 777 1677 
Q 538 1791 414 1992 
Q 291 2194 291 2438 
Q 291 2659 392 2848 
Q 494 3038 669 3163 
Q 800 3259 1026 3326 
Q 1253 3394 1513 3394 
Q 1903 3394 2198 3281 
Q 2494 3169 2634 2976 
Q 2775 2784 2828 2463 
L 2278 2388 
Q 2241 2644 2061 2787 
Q 1881 2931 1553 2931 
Q 1166 2931 1000 2803 
Q 834 2675 834 2503 
Q 834 2394 903 2306 
Q 972 2216 1119 2156 
Q 1203 2125 1616 2013 
Q 2213 1853 2448 1751 
Q 2684 1650 2818 1456 
Q 2953 1263 2953 975 
Q 2953 694 2789 445 
Q 2625 197 2315 61 
Q 2006 -75 1616 -75 
Q 969 -75 630 194 
Q 291 463 197 991 
z
" transform="scale(0.015625)"/>
        <path id="ArialMT-74" d="M 1650 503 
L 1731 6 
Q 1494 -44 1306 -44 
Q 1000 -44 831 53 
Q 663 150 594 308 
Q 525 466 525 972 
L 525 2881 
L 113 2881 
L 113 3319 
L 525 3319 
L 525 4141 
L 1084 4478 
L 1084 3319 
L 1650 3319 
L 1650 2881 
L 1084 2881 
L 1084 941 
Q 1084 700 1114 631 
Q 1144 563 1211 522 
Q 1278 481 1403 481 
Q 1497 481 1650 503 
z
" transform="scale(0.015625)"/>
        <path id="ArialMT-20" transform="scale(0.015625)"/>
        <path id="ArialMT-78" d="M 47 0 
L 1259 1725 
L 138 3319 
L 841 3319 
L 1350 2541 
Q 1494 2319 1581 2169 
Q 1719 2375 1834 2534 
L 2394 3319 
L 3066 3319 
L 1919 1756 
L 3153 0 
L 2463 0 
L 1781 1031 
L 1600 1309 
L 728 0 
L 47 0 
z
" transform="scale(0.015625)"/>
       </defs>
       <use xlink:href="#ArialMT-57"/>
       <use xlink:href="#ArialMT-72" x="92.634766"/>
       <use xlink:href="#ArialMT-69" x="125.935547"/>
       <use xlink:href="#ArialMT-73" x="148.152344"/>
       <use xlink:href="#ArialMT-74" x="198.152344"/>
       <use xlink:href="#ArialMT-20" x="225.935547"/>
       <use xlink:href="#ArialMT-45" x="253.71875"/>
       <use xlink:href="#ArialMT-78" x="320.417969"/>
       <use xlink:href="#ArialMT-74" x="370.417969"/>
      </g>
     </g>
    </g>
    <g id="xtick_3">
     <g id="line2d_3">
      <path d="M 206.995448 306.51975 
L 344.63097 261.799258 
" clip-path="url(#p3098786b94)" style="fill: none; stroke: #d1d5d8; stroke-opacity: 0.3; stroke-width: 1.5; stroke-linecap: round"/>
     </g>
     <g id="text_3">
      <!-- Elbow Ext -->
      <g style="fill: #262626" transform="translate(336.499072 258.875614) scale(0.12 -0.12)">
       <defs>
        <path id="ArialMT-6c" d="M 409 0 
L 409 4581 
L 972 4581 
L 972 0 
L 409 0 
z
" transform="scale(0.015625)"/>
        <path id="ArialMT-62" d="M 941 0 
L 419 0 
L 419 4581 
L 981 4581 
L 981 2947 
Q 1338 3394 1891 3394 
Q 2197 3394 2470 3270 
Q 2744 3147 2920 2923 
Q 3097 2700 3197 2384 
Q 3297 2069 3297 1709 
Q 3297 856 2875 390 
Q 2453 -75 1863 -75 
Q 1275 -75 941 416 
L 941 0 
z
M 934 1684 
Q 934 1088 1097 822 
Q 1363 388 1816 388 
Q 2184 388 2453 708 
Q 2722 1028 2722 1663 
Q 2722 2313 2464 2622 
Q 2206 2931 1841 2931 
Q 1472 2931 1203 2611 
Q 934 2291 934 1684 
z
" transform="scale(0.015625)"/>
        <path id="ArialMT-6f" d="M 213 1659 
Q 213 2581 725 3025 
Q 1153 3394 1769 3394 
Q 2453 3394 2887 2945 
Q 3322 2497 3322 1706 
Q 3322 1066 3130 698 
Q 2938 331 2570 128 
Q 2203 -75 1769 -75 
Q 1072 -75 642 372 
Q 213 819 213 1659 
z
M 791 1659 
Q 791 1022 1069 705 
Q 1347 388 1769 388 
Q 2188 388 2466 706 
Q 2744 1025 2744 1678 
Q 2744 2294 2464 2611 
Q 2184 2928 1769 2928 
Q 1347 2928 1069 2612 
Q 791 2297 791 1659 
z
" transform="scale(0.015625)"/>
        <path id="ArialMT-77" d="M 1034 0 
L 19 3319 
L 600 3319 
L 1128 1403 
L 1325 691 
Q 1338 744 1497 1375 
L 2025 3319 
L 2603 3319 
L 3100 1394 
L 3266 759 
L 3456 1400 
L 4025 3319 
L 4572 3319 
L 3534 0 
L 2950 0 
L 2422 1988 
L 2294 2553 
L 1622 0 
L 1034 0 
z
" transform="scale(0.015625)"/>
       </defs>
       <use xlink:href="#ArialMT-45"/>
       <use xlink:href="#ArialMT-6c" x="66.699219"/>
       <use xlink:href="#ArialMT-62" x="88.916016"/>
       <use xlink:href="#ArialMT-6f" x="144.53125"/>
       <use xlink:href="#ArialMT-77" x="200.146484"/>
       <use xlink:href="#ArialMT-20" x="272.363281"/>
       <use xlink:href="#ArialMT-45" x="300.146484"/>
       <use xlink:href="#ArialMT-78" x="366.845703"/>
       <use xlink:href="#ArialMT-74" x="416.845703"/>
      </g>
     </g>
    </g>
    <g id="xtick_4">
     <g id="line2d_4">
      <path d="M 206.995448 306.51975 
L 344.63097 351.240242 
" clip-path="url(#p3098786b94)" style="fill: none; stroke: #d1d5d8; stroke-opacity: 0.3; stroke-width: 1.5; stroke-linecap: round"/>
     </g>
     <g id="text_4">
      <!-- Finger Flex -->
      <g style="fill: #262626" transform="translate(333.170009 360.297948) scale(0.12 -0.12)">
       <defs>
        <path id="ArialMT-6e" d="M 422 0 
L 422 3319 
L 928 3319 
L 928 2847 
Q 1294 3394 1984 3394 
Q 2284 3394 2536 3286 
Q 2788 3178 2913 3003 
Q 3038 2828 3088 2588 
Q 3119 2431 3119 2041 
L 3119 0 
L 2556 0 
L 2556 2019 
Q 2556 2363 2490 2533 
Q 2425 2703 2258 2804 
Q 2091 2906 1866 2906 
Q 1506 2906 1245 2678 
Q 984 2450 984 1813 
L 984 0 
L 422 0 
z
" transform="scale(0.015625)"/>
        <path id="ArialMT-67" d="M 319 -275 
L 866 -356 
Q 900 -609 1056 -725 
Q 1266 -881 1628 -881 
Q 2019 -881 2231 -725 
Q 2444 -569 2519 -288 
Q 2563 -116 2559 434 
Q 2191 0 1641 0 
Q 956 0 581 494 
Q 206 988 206 1678 
Q 206 2153 378 2554 
Q 550 2956 876 3175 
Q 1203 3394 1644 3394 
Q 2231 3394 2613 2919 
L 2613 3319 
L 3131 3319 
L 3131 450 
Q 3131 -325 2973 -648 
Q 2816 -972 2473 -1159 
Q 2131 -1347 1631 -1347 
Q 1038 -1347 672 -1080 
Q 306 -813 319 -275 
z
M 784 1719 
Q 784 1066 1043 766 
Q 1303 466 1694 466 
Q 2081 466 2343 764 
Q 2606 1063 2606 1700 
Q 2606 2309 2336 2618 
Q 2066 2928 1684 2928 
Q 1309 2928 1046 2623 
Q 784 2319 784 1719 
z
" transform="scale(0.015625)"/>
        <path id="ArialMT-65" d="M 2694 1069 
L 3275 997 
Q 3138 488 2766 206 
Q 2394 -75 1816 -75 
Q 1088 -75 661 373 
Q 234 822 234 1631 
Q 234 2469 665 2931 
Q 1097 3394 1784 3394 
Q 2450 3394 2872 2941 
Q 3294 2488 3294 1666 
Q 3294 1616 3291 1516 
L 816 1516 
Q 847 969 1125 678 
Q 1403 388 1819 388 
Q 2128 388 2347 550 
Q 2566 713 2694 1069 
z
M 847 1978 
L 2700 1978 
Q 2663 2397 2488 2606 
Q 2219 2931 1791 2931 
Q 1403 2931 1139 2672 
Q 875 2413 847 1978 
z
" transform="scale(0.015625)"/>
       </defs>
       <use xlink:href="#ArialMT-46"/>
       <use xlink:href="#ArialMT-69" x="61.083984"/>
       <use xlink:href="#ArialMT-6e" x="83.300781"/>
       <use xlink:href="#ArialMT-67" x="138.916016"/>
       <use xlink:href="#ArialMT-65" x="194.53125"/>
       <use xlink:href="#ArialMT-72" x="250.146484"/>
       <use xlink:href="#ArialMT-20" x="283.447266"/>
       <use xlink:href="#ArialMT-46" x="311.230469"/>
       <use xlink:href="#ArialMT-6c" x="372.314453"/>
       <use xlink:href="#ArialMT-65" x="394.53125"/>
       <use xlink:href="#ArialMT-78" x="450.146484"/>
      </g>
     </g>
    </g>
    <g id="xtick_5">
     <g id="line2d_5">
      <path d="M 206.995448 306.51975 
L 292.058878 423.599518 
" clip-path="url(#p3098786b94)" style="fill: none; stroke: #d1d5d8; stroke-opacity: 0.3; stroke-width: 1.5; stroke-linecap: round"/>
     </g>
     <g id="text_5">
      <!-- Finger Abd -->
      <g style="fill: #262626" transform="translate(274.503191 442.407225) scale(0.12 -0.12)">
       <defs>
        <path id="ArialMT-41" d="M -9 0 
L 1750 4581 
L 2403 4581 
L 4278 0 
L 3588 0 
L 3053 1388 
L 1138 1388 
L 634 0 
L -9 0 
z
M 1313 1881 
L 2866 1881 
L 2388 3150 
Q 2169 3728 2063 4100 
Q 1975 3659 1816 3225 
L 1313 1881 
z
" transform="scale(0.015625)"/>
        <path id="ArialMT-64" d="M 2575 0 
L 2575 419 
Q 2259 -75 1647 -75 
Q 1250 -75 917 144 
Q 584 363 401 755 
Q 219 1147 219 1656 
Q 219 2153 384 2558 
Q 550 2963 881 3178 
Q 1213 3394 1622 3394 
Q 1922 3394 2156 3267 
Q 2391 3141 2538 2938 
L 2538 4581 
L 3097 4581 
L 3097 0 
L 2575 0 
z
M 797 1656 
Q 797 1019 1065 703 
Q 1334 388 1700 388 
Q 2069 388 2326 689 
Q 2584 991 2584 1609 
Q 2584 2291 2321 2609 
Q 2059 2928 1675 2928 
Q 1300 2928 1048 2622 
Q 797 2316 797 1656 
z
" transform="scale(0.015625)"/>
       </defs>
       <use xlink:href="#ArialMT-46"/>
       <use xlink:href="#ArialMT-69" x="61.083984"/>
       <use xlink:href="#ArialMT-6e" x="83.300781"/>
       <use xlink:href="#ArialMT-67" x="138.916016"/>
       <use xlink:href="#ArialMT-65" x="194.53125"/>
       <use xlink:href="#ArialMT-72" x="250.146484"/>
       <use xlink:href="#ArialMT-20" x="283.447266"/>
       <use xlink:href="#ArialMT-41" x="305.730469"/>
       <use xlink:href="#ArialMT-62" x="372.429688"/>
       <use xlink:href="#ArialMT-64" x="428.044922"/>
      </g>
     </g>
    </g>
    <g id="xtick_6">
     <g id="line2d_6">
      <path d="M 206.995448 306.51975 
L 206.995448 451.238302 
" clip-path="url(#p3098786b94)" style="fill: none; stroke: #d1d5d8; stroke-opacity: 0.3; stroke-width: 1.5; stroke-linecap: round"/>
     </g>
     <g id="text_6">
      <!-- Hip Flex -->
      <g style="fill: #262626" transform="translate(184.991385 473.84049) scale(0.12 -0.12)">
       <defs>
        <path id="ArialMT-48" d="M 513 0 
L 513 4581 
L 1119 4581 
L 1119 2700 
L 3500 2700 
L 3500 4581 
L 4106 4581 
L 4106 0 
L 3500 0 
L 3500 2159 
L 1119 2159 
L 1119 0 
L 513 0 
z
" transform="scale(0.015625)"/>
        <path id="ArialMT-70" d="M 422 -1272 
L 422 3319 
L 934 3319 
L 934 2888 
Q 1116 3141 1344 3267 
Q 1572 3394 1897 3394 
Q 2322 3394 2647 3175 
Q 2972 2956 3137 2557 
Q 3303 2159 3303 1684 
Q 3303 1175 3120 767 
Q 2938 359 2589 142 
Q 2241 -75 1856 -75 
Q 1575 -75 1351 44 
Q 1128 163 984 344 
L 984 -1272 
L 422 -1272 
z
M 931 1641 
Q 931 1000 1190 694 
Q 1450 388 1819 388 
Q 2194 388 2461 705 
Q 2728 1022 2728 1688 
Q 2728 2322 2467 2637 
Q 2206 2953 1844 2953 
Q 1484 2953 1207 2617 
Q 931 2281 931 1641 
z
" transform="scale(0.015625)"/>
       </defs>
       <use xlink:href="#ArialMT-48"/>
       <use xlink:href="#ArialMT-69" x="72.216797"/>
       <use xlink:href="#ArialMT-70" x="94.433594"/>
       <use xlink:href="#ArialMT-20" x="150.048828"/>
       <use xlink:href="#ArialMT-46" x="177.832031"/>
       <use xlink:href="#ArialMT-6c" x="238.916016"/>
       <use xlink:href="#ArialMT-65" x="261.132812"/>
       <use xlink:href="#ArialMT-78" x="316.748047"/>
      </g>
     </g>
    </g>
    <g id="xtick_7">
     <g id="line2d_7">
      <path d="M 206.995448 306.51975 
L 121.932017 423.599518 
" clip-path="url(#p3098786b94)" style="fill: none; stroke: #d1d5d8; stroke-opacity: 0.3; stroke-width: 1.5; stroke-linecap: round"/>
     </g>
     <g id="text_7">
      <!-- Knee Ext -->
      <g style="fill: #262626" transform="translate(86.122392 442.477537) scale(0.12 -0.12)">
       <defs>
        <path id="ArialMT-4b" d="M 469 0 
L 469 4581 
L 1075 4581 
L 1075 2309 
L 3350 4581 
L 4172 4581 
L 2250 2725 
L 4256 0 
L 3456 0 
L 1825 2319 
L 1075 1588 
L 1075 0 
L 469 0 
z
" transform="scale(0.015625)"/>
       </defs>
       <use xlink:href="#ArialMT-4b"/>
       <use xlink:href="#ArialMT-6e" x="66.699219"/>
       <use xlink:href="#ArialMT-65" x="122.314453"/>
       <use xlink:href="#ArialMT-65" x="177.929688"/>
       <use xlink:href="#ArialMT-20" x="233.544922"/>
       <use xlink:href="#ArialMT-45" x="261.328125"/>
       <use xlink:href="#ArialMT-78" x="328.027344"/>
       <use xlink:href="#ArialMT-74" x="378.027344"/>
      </g>
     </g>
    </g>
    <g id="xtick_8">
     <g id="line2d_8">
      <path d="M 206.995448 306.51975 
L 69.359925 351.240242 
" clip-path="url(#p3098786b94)" style="fill: none; stroke: #d1d5d8; stroke-opacity: 0.3; stroke-width: 1.5; stroke-linecap: round"/>
     </g>
     <g id="text_8">
      <!-- Ankle Dorsi -->
      <g style="fill: #262626" transform="translate(20.138386 360.368261) scale(0.12 -0.12)">
       <defs>
        <path id="ArialMT-6b" d="M 425 0 
L 425 4581 
L 988 4581 
L 988 1969 
L 2319 3319 
L 3047 3319 
L 1778 2088 
L 3175 0 
L 2481 0 
L 1384 1697 
L 988 1316 
L 988 0 
L 425 0 
z
" transform="scale(0.015625)"/>
        <path id="ArialMT-44" d="M 494 0 
L 494 4581 
L 2072 4581 
Q 2606 4581 2888 4516 
Q 3281 4425 3559 4188 
Q 3922 3881 4101 3404 
Q 4281 2928 4281 2316 
Q 4281 1794 4159 1391 
Q 4038 988 3847 723 
Q 3656 459 3429 307 
Q 3203 156 2883 78 
Q 2563 0 2147 0 
L 494 0 
z
M 1100 541 
L 2078 541 
Q 2531 541 2789 625 
Q 3047 709 3200 863 
Q 3416 1078 3536 1442 
Q 3656 1806 3656 2325 
Q 3656 3044 3420 3430 
Q 3184 3816 2847 3947 
Q 2603 4041 2063 4041 
L 1100 4041 
L 1100 541 
z
" transform="scale(0.015625)"/>
       </defs>
       <use xlink:href="#ArialMT-41"/>
       <use xlink:href="#ArialMT-6e" x="66.699219"/>
       <use xlink:href="#ArialMT-6b" x="122.314453"/>
       <use xlink:href="#ArialMT-6c" x="172.314453"/>
       <use xlink:href="#ArialMT-65" x="194.53125"/>
       <use xlink:href="#ArialMT-20" x="250.146484"/>
       <use xlink:href="#ArialMT-44" x="277.929688"/>
       <use xlink:href="#ArialMT-6f" x="350.146484"/>
       <use xlink:href="#ArialMT-72" x="405.761719"/>
       <use xlink:href="#ArialMT-73" x="439.0625"/>
       <use xlink:href="#ArialMT-69" x="489.0625"/>
      </g>
     </g>
    </g>
    <g id="xtick_9">
     <g id="line2d_9">
      <path d="M 206.995448 306.51975 
L 69.359925 261.799258 
" clip-path="url(#p3098786b94)" style="fill: none; stroke: #d1d5d8; stroke-opacity: 0.3; stroke-width: 1.5; stroke-linecap: round"/>
     </g>
     <g id="text_9">
      <!-- Great Toe Ext -->
      <g style="fill: #262626" transform="translate(14.241511 258.875614) scale(0.12 -0.12)">
       <defs>
        <path id="ArialMT-47" d="M 2638 1797 
L 2638 2334 
L 4578 2338 
L 4578 638 
Q 4131 281 3656 101 
Q 3181 -78 2681 -78 
Q 2006 -78 1454 211 
Q 903 500 622 1047 
Q 341 1594 341 2269 
Q 341 2938 620 3517 
Q 900 4097 1425 4378 
Q 1950 4659 2634 4659 
Q 3131 4659 3532 4498 
Q 3934 4338 4162 4050 
Q 4391 3763 4509 3300 
L 3963 3150 
Q 3859 3500 3706 3700 
Q 3553 3900 3268 4020 
Q 2984 4141 2638 4141 
Q 2222 4141 1919 4014 
Q 1616 3888 1430 3681 
Q 1244 3475 1141 3228 
Q 966 2803 966 2306 
Q 966 1694 1177 1281 
Q 1388 869 1791 669 
Q 2194 469 2647 469 
Q 3041 469 3416 620 
Q 3791 772 3984 944 
L 3984 1797 
L 2638 1797 
z
" transform="scale(0.015625)"/>
        <path id="ArialMT-61" d="M 2588 409 
Q 2275 144 1986 34 
Q 1697 -75 1366 -75 
Q 819 -75 525 192 
Q 231 459 231 875 
Q 231 1119 342 1320 
Q 453 1522 633 1644 
Q 813 1766 1038 1828 
Q 1203 1872 1538 1913 
Q 2219 1994 2541 2106 
Q 2544 2222 2544 2253 
Q 2544 2597 2384 2738 
Q 2169 2928 1744 2928 
Q 1347 2928 1158 2789 
Q 969 2650 878 2297 
L 328 2372 
Q 403 2725 575 2942 
Q 747 3159 1072 3276 
Q 1397 3394 1825 3394 
Q 2250 3394 2515 3294 
Q 2781 3194 2906 3042 
Q 3031 2891 3081 2659 
Q 3109 2516 3109 2141 
L 3109 1391 
Q 3109 606 3145 398 
Q 3181 191 3288 0 
L 2700 0 
Q 2613 175 2588 409 
z
M 2541 1666 
Q 2234 1541 1622 1453 
Q 1275 1403 1131 1340 
Q 988 1278 909 1158 
Q 831 1038 831 891 
Q 831 666 1001 516 
Q 1172 366 1500 366 
Q 1825 366 2078 508 
Q 2331 650 2450 897 
Q 2541 1088 2541 1459 
L 2541 1666 
z
" transform="scale(0.015625)"/>
        <path id="ArialMT-54" d="M 1659 0 
L 1659 4041 
L 150 4041 
L 150 4581 
L 3781 4581 
L 3781 4041 
L 2266 4041 
L 2266 0 
L 1659 0 
z
" transform="scale(0.015625)"/>
       </defs>
       <use xlink:href="#ArialMT-47"/>
       <use xlink:href="#ArialMT-72" x="77.783203"/>
       <use xlink:href="#ArialMT-65" x="111.083984"/>
       <use xlink:href="#ArialMT-61" x="166.699219"/>
       <use xlink:href="#ArialMT-74" x="222.314453"/>
       <use xlink:href="#ArialMT-20" x="250.097656"/>
       <use xlink:href="#ArialMT-54" x="276.130859"/>
       <use xlink:href="#ArialMT-6f" x="326.089844"/>
       <use xlink:href="#ArialMT-65" x="381.705078"/>
       <use xlink:href="#ArialMT-20" x="437.320312"/>
       <use xlink:href="#ArialMT-45" x="465.103516"/>
       <use xlink:href="#ArialMT-78" x="531.802734"/>
       <use xlink:href="#ArialMT-74" x="581.802734"/>
      </g>
     </g>
    </g>
    <g id="xtick_10">
     <g id="line2d_10">
      <path d="M 206.995448 306.51975 
L 121.932017 189.439982 
" clip-path="url(#p3098786b94)" style="fill: none; stroke: #d1d5d8; stroke-opacity: 0.3; stroke-width: 1.5; stroke-linecap: round"/>
     </g>
     <g id="text_10">
      <!-- Ankle Plant -->
      <g style="fill: #262626" transform="translate(80.119579 176.766338) scale(0.12 -0.12)">
       <defs>
        <path id="ArialMT-50" d="M 494 0 
L 494 4581 
L 2222 4581 
Q 2678 4581 2919 4538 
Q 3256 4481 3484 4323 
Q 3713 4166 3852 3881 
Q 3991 3597 3991 3256 
Q 3991 2672 3619 2267 
Q 3247 1863 2275 1863 
L 1100 1863 
L 1100 0 
L 494 0 
z
M 1100 2403 
L 2284 2403 
Q 2872 2403 3119 2622 
Q 3366 2841 3366 3238 
Q 3366 3525 3220 3729 
Q 3075 3934 2838 4000 
Q 2684 4041 2272 4041 
L 1100 4041 
L 1100 2403 
z
" transform="scale(0.015625)"/>
       </defs>
       <use xlink:href="#ArialMT-41"/>
       <use xlink:href="#ArialMT-6e" x="66.699219"/>
       <use xlink:href="#ArialMT-6b" x="122.314453"/>
       <use xlink:href="#ArialMT-6c" x="172.314453"/>
       <use xlink:href="#ArialMT-65" x="194.53125"/>
       <use xlink:href="#ArialMT-20" x="250.146484"/>
       <use xlink:href="#ArialMT-50" x="277.929688"/>
       <use xlink:href="#ArialMT-6c" x="344.628906"/>
       <use xlink:href="#ArialMT-61" x="366.845703"/>
       <use xlink:href="#ArialMT-6e" x="422.460938"/>
       <use xlink:href="#ArialMT-74" x="478.076172"/>
      </g>
     </g>
    </g>
   </g>
   <g id="matplotlib.axis_2">
    <g id="ytick_1">
     <g id="line2d_11">
      <path d="M 206.995448 260.577352 
C 213.028548 260.577352 219.002984 261.765742 224.576842 264.074509 
C 230.1507 266.383277 235.215582 269.767523 239.481628 274.033569 
C 243.747675 278.299615 247.131921 283.364498 249.440688 288.938356 
C 251.749456 294.512214 252.937845 300.48665 252.937845 306.51975 
C 252.937845 312.55285 251.749456 318.527286 249.440688 324.101144 
C 247.131921 329.675002 243.747675 334.739885 239.481628 339.005931 
C 235.215582 343.271977 230.1507 346.656223 224.576842 348.964991 
C 219.002984 351.273758 213.028548 352.462148 206.995448 352.462148 
C 200.962347 352.462148 194.987911 351.273758 189.414053 348.964991 
C 183.840195 346.656223 178.775313 343.271977 174.509267 339.005931 
C 170.24322 334.739885 166.858974 329.675002 164.550207 324.101144 
C 162.241439 318.527286 161.05305 312.55285 161.05305 306.51975 
C 161.05305 300.48665 162.241439 294.512214 164.550207 288.938356 
C 166.858974 283.364498 170.24322 278.299615 174.509267 274.033569 
C 178.775313 269.767523 183.840195 266.383277 189.414053 264.074509 
C 194.987911 261.765742 200.962347 260.577352 206.995448 260.577352 
" clip-path="url(#p3098786b94)" style="fill: none; stroke: #d1d5d8; stroke-opacity: 0.3; stroke-width: 1.5; stroke-linecap: round"/>
     </g>
     <g id="text_11">
      <!-- 0.35 -->
      <g style="fill: #808080" transform="translate(206.995448 258.589852) scale(0.1 -0.1)">
       <defs>
        <path id="ArialMT-30" d="M 266 2259 
Q 266 3072 433 3567 
Q 600 4063 929 4331 
Q 1259 4600 1759 4600 
Q 2128 4600 2406 4451 
Q 2684 4303 2865 4023 
Q 3047 3744 3150 3342 
Q 3253 2941 3253 2259 
Q 3253 1453 3087 958 
Q 2922 463 2592 192 
Q 2263 -78 1759 -78 
Q 1097 -78 719 397 
Q 266 969 266 2259 
z
M 844 2259 
Q 844 1131 1108 757 
Q 1372 384 1759 384 
Q 2147 384 2411 759 
Q 2675 1134 2675 2259 
Q 2675 3391 2411 3762 
Q 2147 4134 1753 4134 
Q 1366 4134 1134 3806 
Q 844 3388 844 2259 
z
" transform="scale(0.015625)"/>
        <path id="ArialMT-2e" d="M 581 0 
L 581 641 
L 1222 641 
L 1222 0 
L 581 0 
z
" transform="scale(0.015625)"/>
        <path id="ArialMT-33" d="M 269 1209 
L 831 1284 
Q 928 806 1161 595 
Q 1394 384 1728 384 
Q 2125 384 2398 659 
Q 2672 934 2672 1341 
Q 2672 1728 2419 1979 
Q 2166 2231 1775 2231 
Q 1616 2231 1378 2169 
L 1441 2663 
Q 1497 2656 1531 2656 
Q 1891 2656 2178 2843 
Q 2466 3031 2466 3422 
Q 2466 3731 2256 3934 
Q 2047 4138 1716 4138 
Q 1388 4138 1169 3931 
Q 950 3725 888 3313 
L 325 3413 
Q 428 3978 793 4289 
Q 1159 4600 1703 4600 
Q 2078 4600 2393 4439 
Q 2709 4278 2876 4000 
Q 3044 3722 3044 3409 
Q 3044 3113 2884 2869 
Q 2725 2625 2413 2481 
Q 2819 2388 3044 2092 
Q 3269 1797 3269 1353 
Q 3269 753 2831 336 
Q 2394 -81 1725 -81 
Q 1122 -81 723 278 
Q 325 638 269 1209 
z
" transform="scale(0.015625)"/>
        <path id="ArialMT-35" d="M 266 1200 
L 856 1250 
Q 922 819 1161 601 
Q 1400 384 1738 384 
Q 2144 384 2425 690 
Q 2706 997 2706 1503 
Q 2706 1984 2436 2262 
Q 2166 2541 1728 2541 
Q 1456 2541 1237 2417 
Q 1019 2294 894 2097 
L 366 2166 
L 809 4519 
L 3088 4519 
L 3088 3981 
L 1259 3981 
L 1013 2750 
Q 1425 3038 1878 3038 
Q 2478 3038 2890 2622 
Q 3303 2206 3303 1553 
Q 3303 931 2941 478 
Q 2500 -78 1738 -78 
Q 1113 -78 717 272 
Q 322 622 266 1200 
z
" transform="scale(0.015625)"/>
       </defs>
       <use xlink:href="#ArialMT-30"/>
       <use xlink:href="#ArialMT-2e" x="55.615234"/>
       <use xlink:href="#ArialMT-33" x="83.398438"/>
       <use xlink:href="#ArialMT-35" x="139.013672"/>
      </g>
     </g>
    </g>
    <g id="ytick_2">
     <g id="line2d_12">
      <path d="M 206.995448 214.634955 
C 219.061648 214.634955 231.01052 217.011733 242.158236 221.629268 
C 253.305952 226.246803 263.435717 233.015296 271.967809 241.547388 
C 280.499902 250.079481 287.268394 260.209245 291.885929 271.356961 
C 296.503464 282.504677 298.880243 294.453549 298.880243 306.51975 
C 298.880243 318.585951 296.503464 330.534823 291.885929 341.682539 
C 287.268394 352.830255 280.499902 362.960019 271.967809 371.492112 
C 263.435717 380.024204 253.305952 386.792697 242.158236 391.410232 
C 231.01052 396.027767 219.061648 398.404545 206.995448 398.404545 
C 194.929247 398.404545 182.980375 396.027767 171.832659 391.410232 
C 160.684943 386.792697 150.555178 380.024204 142.023086 371.492112 
C 133.490993 362.960019 126.722501 352.830255 122.104966 341.682539 
C 117.487431 330.534823 115.110652 318.585951 115.110652 306.51975 
C 115.110652 294.453549 117.487431 282.504677 122.104966 271.356961 
C 126.722501 260.209245 133.490993 250.079481 142.023086 241.547388 
C 150.555178 233.015296 160.684943 226.246803 171.832659 221.629268 
C 182.980375 217.011733 194.929247 214.634955 206.995448 214.634955 
" clip-path="url(#p3098786b94)" style="fill: none; stroke: #d1d5d8; stroke-opacity: 0.3; stroke-width: 1.5; stroke-linecap: round"/>
     </g>
     <g id="text_12">
      <!-- 0.71 -->
      <g style="fill: #808080" transform="translate(206.995448 212.647455) scale(0.1 -0.1)">
       <defs>
        <path id="ArialMT-37" d="M 303 3981 
L 303 4522 
L 3269 4522 
L 3269 4084 
Q 2831 3619 2401 2847 
Q 1972 2075 1738 1259 
Q 1569 684 1522 0 
L 944 0 
Q 953 541 1156 1306 
Q 1359 2072 1739 2783 
Q 2119 3494 2547 3981 
L 303 3981 
z
" transform="scale(0.015625)"/>
        <path id="ArialMT-31" d="M 2384 0 
L 1822 0 
L 1822 3584 
Q 1619 3391 1289 3197 
Q 959 3003 697 2906 
L 697 3450 
Q 1169 3672 1522 3987 
Q 1875 4303 2022 4600 
L 2384 4600 
L 2384 0 
z
" transform="scale(0.015625)"/>
       </defs>
       <use xlink:href="#ArialMT-30"/>
       <use xlink:href="#ArialMT-2e" x="55.615234"/>
       <use xlink:href="#ArialMT-37" x="83.398438"/>
       <use xlink:href="#ArialMT-31" x="139.013672"/>
      </g>
     </g>
    </g>
    <g id="ytick_3">
     <g id="line2d_13">
      <path d="M 206.995448 168.692557 
C 225.094749 168.692557 243.018057 172.257725 259.739631 179.184028 
C 276.461205 186.11033 291.655852 196.263069 304.45399 209.061207 
C 317.252129 221.859346 327.404867 237.053993 334.33117 253.775567 
C 341.257473 270.497141 344.82264 288.420449 344.82264 306.51975 
C 344.82264 324.619051 341.257473 342.542359 334.33117 359.263933 
C 327.404867 375.985507 317.252129 391.180154 304.45399 403.978293 
C 291.655852 416.776431 276.461205 426.92917 259.739631 433.855472 
C 243.018057 440.781775 225.094749 444.346943 206.995448 444.346943 
C 188.896146 444.346943 170.972838 440.781775 154.251264 433.855472 
C 137.52969 426.92917 122.335043 416.776431 109.536905 403.978293 
C 96.738766 391.180154 86.586028 375.985507 79.659725 359.263933 
C 72.733422 342.542359 69.168255 324.619051 69.168255 306.51975 
C 69.168255 288.420449 72.733422 270.497141 79.659725 253.775567 
C 86.586028 237.053993 96.738766 221.859346 109.536905 209.061207 
C 122.335043 196.263069 137.52969 186.11033 154.251264 179.184028 
C 170.972838 172.257725 188.896146 168.692557 206.995448 168.692557 
" clip-path="url(#p3098786b94)" style="fill: none; stroke: #d1d5d8; stroke-opacity: 0.3; stroke-width: 1.5; stroke-linecap: round"/>
     </g>
     <g id="text_13">
      <!-- 1.06 -->
      <g style="fill: #808080" transform="translate(206.995448 166.705057) scale(0.1 -0.1)">
       <defs>
        <path id="ArialMT-36" d="M 3184 3459 
L 2625 3416 
Q 2550 3747 2413 3897 
Q 2184 4138 1850 4138 
Q 1581 4138 1378 3988 
Q 1113 3794 959 3422 
Q 806 3050 800 2363 
Q 1003 2672 1297 2822 
Q 1591 2972 1913 2972 
Q 2475 2972 2870 2558 
Q 3266 2144 3266 1488 
Q 3266 1056 3080 686 
Q 2894 316 2569 119 
Q 2244 -78 1831 -78 
Q 1128 -78 684 439 
Q 241 956 241 2144 
Q 241 3472 731 4075 
Q 1159 4600 1884 4600 
Q 2425 4600 2770 4297 
Q 3116 3994 3184 3459 
z
M 888 1484 
Q 888 1194 1011 928 
Q 1134 663 1356 523 
Q 1578 384 1822 384 
Q 2178 384 2434 671 
Q 2691 959 2691 1453 
Q 2691 1928 2437 2201 
Q 2184 2475 1800 2475 
Q 1419 2475 1153 2201 
Q 888 1928 888 1484 
z
" transform="scale(0.015625)"/>
       </defs>
       <use xlink:href="#ArialMT-31"/>
       <use xlink:href="#ArialMT-2e" x="55.615234"/>
       <use xlink:href="#ArialMT-30" x="83.398438"/>
       <use xlink:href="#ArialMT-36" x="139.013672"/>
      </g>
     </g>
    </g>
   </g>
   <g id="patch_3">
    <path d="M 206.995448 207.838761 
L 271.568189 217.642997 
L 323.59228 268.635143 
L 314.792959 341.545285 
L 271.353009 395.100335 
L 206.995448 426.663268 
L 125.982656 418.024291 
L 85.636048 345.951809 
L 94.931651 270.108015 
L 139.889859 214.156831 
z
" clip-path="url(#p3098786b94)" style="fill: #0060a9; opacity: 0.2; stroke: #0060a9; stroke-width: 1.5; stroke-linejoin: miter"/>
   </g>
   <g id="patch_4">
    <path d="M 206.995448 211.436407 
L 272.630223 216.181231 
L 318.536415 270.277893 
L 317.523169 342.432384 
L 271.968053 395.94687 
L 206.995448 426.645797 
L 128.962601 413.922749 
L 98.142946 341.888072 
L 95.638731 270.33776 
L 142.671519 217.985458 
z
" clip-path="url(#p3098786b94)" style="fill: #f48024; opacity: 0.2; stroke: #f48024; stroke-width: 1.5; stroke-linejoin: miter"/>
   </g>
   <g id="line2d_14">
    <path d="M 206.995448 213.405239 
L 269.416886 220.604011 
L 319.019549 270.120913 
L 312.351198 340.751908 
L 268.558049 391.253401 
L 206.995448 420.636184 
L 130.669699 411.57313 
L 98.679311 341.713796 
L 101.895951 272.370854 
L 145.416811 221.764028 
L 206.995448 213.405239 
" clip-path="url(#p3098786b94)" style="fill: none; stroke-dasharray: 7.4,3.2; stroke-dashoffset: 0; stroke: #7ab800; stroke-opacity: 0.8; stroke-width: 2"/>
   </g>
   <g id="line2d_15">
    <path d="M 206.995448 213.003263 
L 270.664476 218.886851 
L 317.391257 270.649977 
L 313.259437 341.047013 
L 270.247676 393.578974 
L 206.995448 422.032666 
L 131.293754 410.714192 
L 96.679737 342.363497 
L 99.999622 271.754699 
L 143.965915 219.767041 
L 206.995448 213.003263 
" clip-path="url(#p3098786b94)" style="fill: none; stroke-dasharray: 7.4,3.2; stroke-dashoffset: 0; stroke: #4b4f54; stroke-opacity: 0.8; stroke-width: 2"/>
   </g>
   <g id="line2d_16">
    <path d="M 206.995448 198.659598 
L 278.73148 207.783572 
L 330.291013 266.458592 
L 326.453414 345.333996 
L 278.114496 404.406723 
L 206.995448 440.446946 
L 118.560484 428.240034 
L 76.993914 348.759809 
L 80.433697 265.397344 
L 132.309558 203.723442 
L 206.995448 198.659598 
" clip-path="url(#p3098786b94)" style="fill: none; stroke-dasharray: 7.4,3.2; stroke-dashoffset: 0; stroke: #8e44ad; stroke-opacity: 0.8; stroke-width: 2"/>
   </g>
   <g id="line2d_17">
    <path d="M 206.995448 207.838761 
L 271.568189 217.642997 
L 323.59228 268.635143 
L 314.792959 341.545285 
L 271.353009 395.100335 
L 206.995448 426.663268 
L 125.982656 418.024291 
L 85.636048 345.951809 
L 94.931651 270.108015 
L 139.889859 214.156831 
L 206.995448 207.838761 
" clip-path="url(#p3098786b94)" style="fill: none; stroke: #0060a9; stroke-width: 2.5; stroke-linecap: round"/>
   </g>
   <g id="line2d_18">
    <path d="M 206.995448 211.436407 
L 272.630223 216.181231 
L 318.536415 270.277893 
L 317.523169 342.432384 
L 271.968053 395.94687 
L 206.995448 426.645797 
L 128.962601 413.922749 
L 98.142946 341.888072 
L 95.638731 270.33776 
L 142.671519 217.985458 
L 206.995448 211.436407 
" clip-path="url(#p3098786b94)" style="fill: none; stroke: #f48024; stroke-width: 2.5; stroke-linecap: round"/>
   </g>
   <g id="patch_5">
    <path d="M 206.995448 161.801198 
C 187.991181 161.801198 169.171708 165.544624 151.614055 172.817241 
C 134.056403 180.089859 118.102023 190.750235 104.663978 204.18828 
C 91.225932 217.626326 80.565557 233.580705 73.292939 251.138358 
C 66.020321 268.69601 62.276895 287.515484 62.276895 306.51975 
C 62.276895 325.524016 66.020321 344.34349 73.292939 361.901142 
C 80.565557 379.458795 91.225932 395.413174 104.663978 408.85122 
C 118.102023 422.289265 134.056403 432.949641 151.614055 440.222259 
C 169.171708 447.494876 187.991181 451.238302 206.995448 451.238302 
C 225.999714 451.238302 244.819187 447.494876 262.37684 440.222259 
C 279.934492 432.949641 295.888872 422.289265 309.326917 408.85122 
C 322.764963 395.413174 333.425338 379.458795 340.697956 361.901142 
C 347.970574 344.34349 351.714 325.524016 351.714 306.51975 
C 351.714 287.515484 347.970574 268.69601 340.697956 251.138358 
C 333.425338 233.580705 322.764963 217.626326 309.326917 204.18828 
C 295.888872 190.750235 279.934492 180.089859 262.37684 172.817241 
C 244.819187 165.544624 225.999714 161.801198 206.995448 161.801198 
" style="fill: none; stroke: #cccccc; stroke-width: 1.875; stroke-linejoin: miter; stroke-linecap: square"/>
   </g>
   <g id="text_14">
    <!-- 0.98 -->
    <g style="fill: #ff0000" transform="translate(64.554486 352.282806) scale(0.09 -0.09)">
     <defs>
      <path id="ArialMT-39" d="M 350 1059 
L 891 1109 
Q 959 728 1153 556 
Q 1347 384 1650 384 
Q 1909 384 2104 503 
Q 2300 622 2425 820 
Q 2550 1019 2634 1356 
Q 2719 1694 2719 2044 
Q 2719 2081 2716 2156 
Q 2547 1888 2255 1720 
Q 1963 1553 1622 1553 
Q 1053 1553 659 1965 
Q 266 2378 266 3053 
Q 266 3750 677 4175 
Q 1088 4600 1706 4600 
Q 2153 4600 2523 4359 
Q 2894 4119 3086 3673 
Q 3278 3228 3278 2384 
Q 3278 1506 3087 986 
Q 2897 466 2520 194 
Q 2144 -78 1638 -78 
Q 1100 -78 759 220 
Q 419 519 350 1059 
z
M 2653 3081 
Q 2653 3566 2395 3850 
Q 2138 4134 1775 4134 
Q 1400 4134 1122 3828 
Q 844 3522 844 3034 
Q 844 2597 1108 2323 
Q 1372 2050 1759 2050 
Q 2150 2050 2401 2323 
Q 2653 2597 2653 3081 
z
" transform="scale(0.015625)"/>
      <path id="ArialMT-38" d="M 1131 2484 
Q 781 2613 612 2850 
Q 444 3088 444 3419 
Q 444 3919 803 4259 
Q 1163 4600 1759 4600 
Q 2359 4600 2725 4251 
Q 3091 3903 3091 3403 
Q 3091 3084 2923 2848 
Q 2756 2613 2416 2484 
Q 2838 2347 3058 2040 
Q 3278 1734 3278 1309 
Q 3278 722 2862 322 
Q 2447 -78 1769 -78 
Q 1091 -78 675 323 
Q 259 725 259 1325 
Q 259 1772 486 2073 
Q 713 2375 1131 2484 
z
M 1019 3438 
Q 1019 3113 1228 2906 
Q 1438 2700 1772 2700 
Q 2097 2700 2305 2904 
Q 2513 3109 2513 3406 
Q 2513 3716 2298 3927 
Q 2084 4138 1766 4138 
Q 1444 4138 1231 3931 
Q 1019 3725 1019 3438 
z
M 838 1322 
Q 838 1081 952 856 
Q 1066 631 1291 507 
Q 1516 384 1775 384 
Q 2178 384 2440 643 
Q 2703 903 2703 1303 
Q 2703 1709 2433 1975 
Q 2163 2241 1756 2241 
Q 1359 2241 1098 1978 
Q 838 1716 838 1322 
z
" transform="scale(0.015625)"/>
     </defs>
     <use xlink:href="#ArialMT-30"/>
     <use xlink:href="#ArialMT-2e" x="55.615234"/>
     <use xlink:href="#ArialMT-39" x="83.398438"/>
     <use xlink:href="#ArialMT-38" x="139.013672"/>
    </g>
   </g>
   <g id="text_15">
    <!-- 1.02 -->
    <g style="fill: #ff0000" transform="translate(112.588441 426.73293) scale(0.09 -0.09)">
     <defs>
      <path id="ArialMT-32" d="M 3222 541 
L 3222 0 
L 194 0 
Q 188 203 259 391 
Q 375 700 629 1000 
Q 884 1300 1366 1694 
Q 2113 2306 2375 2664 
Q 2638 3022 2638 3341 
Q 2638 3675 2398 3904 
Q 2159 4134 1775 4134 
Q 1369 4134 1125 3890 
Q 881 3647 878 3216 
L 300 3275 
Q 359 3922 746 4261 
Q 1134 4600 1788 4600 
Q 2447 4600 2831 4234 
Q 3216 3869 3216 3328 
Q 3216 3053 3103 2787 
Q 2991 2522 2730 2228 
Q 2469 1934 1863 1422 
Q 1356 997 1212 845 
Q 1069 694 975 541 
L 3222 541 
z
" transform="scale(0.015625)"/>
     </defs>
     <use xlink:href="#ArialMT-31"/>
     <use xlink:href="#ArialMT-2e" x="55.615234"/>
     <use xlink:href="#ArialMT-30" x="83.398438"/>
     <use xlink:href="#ArialMT-32" x="139.013672"/>
    </g>
   </g>
   <g id="text_16">
    <!-- 1.06 -->
    <g style="fill: #ff0000" transform="translate(109.608497 430.834472) scale(0.09 -0.09)">
     <use xlink:href="#ArialMT-31"/>
     <use xlink:href="#ArialMT-2e" x="55.615234"/>
     <use xlink:href="#ArialMT-30" x="83.398438"/>
     <use xlink:href="#ArialMT-36" x="139.013672"/>
    </g>
   </g>
   <g id="text_17">
    <!-- Target-wise RMSE – left vs right muscles -->
    <g style="fill: #262626" transform="translate(61.630448 126.857487) scale(0.16 -0.16)">
     <defs>
      <path id="ArialMT-2d" d="M 203 1375 
L 203 1941 
L 1931 1941 
L 1931 1375 
L 203 1375 
z
" transform="scale(0.015625)"/>
      <path id="ArialMT-52" d="M 503 0 
L 503 4581 
L 2534 4581 
Q 3147 4581 3465 4457 
Q 3784 4334 3975 4021 
Q 4166 3709 4166 3331 
Q 4166 2844 3850 2509 
Q 3534 2175 2875 2084 
Q 3116 1969 3241 1856 
Q 3506 1613 3744 1247 
L 4541 0 
L 3778 0 
L 3172 953 
Q 2906 1366 2734 1584 
Q 2563 1803 2427 1890 
Q 2291 1978 2150 2013 
Q 2047 2034 1813 2034 
L 1109 2034 
L 1109 0 
L 503 0 
z
M 1109 2559 
L 2413 2559 
Q 2828 2559 3062 2645 
Q 3297 2731 3419 2920 
Q 3541 3109 3541 3331 
Q 3541 3656 3305 3865 
Q 3069 4075 2559 4075 
L 1109 4075 
L 1109 2559 
z
" transform="scale(0.015625)"/>
      <path id="ArialMT-4d" d="M 475 0 
L 475 4581 
L 1388 4581 
L 2472 1338 
Q 2622 884 2691 659 
Q 2769 909 2934 1394 
L 4031 4581 
L 4847 4581 
L 4847 0 
L 4263 0 
L 4263 3834 
L 2931 0 
L 2384 0 
L 1059 3900 
L 1059 0 
L 475 0 
z
" transform="scale(0.015625)"/>
      <path id="ArialMT-53" d="M 288 1472 
L 859 1522 
Q 900 1178 1048 958 
Q 1197 738 1509 602 
Q 1822 466 2213 466 
Q 2559 466 2825 569 
Q 3091 672 3220 851 
Q 3350 1031 3350 1244 
Q 3350 1459 3225 1620 
Q 3100 1781 2813 1891 
Q 2628 1963 1997 2114 
Q 1366 2266 1113 2400 
Q 784 2572 623 2826 
Q 463 3081 463 3397 
Q 463 3744 659 4045 
Q 856 4347 1234 4503 
Q 1613 4659 2075 4659 
Q 2584 4659 2973 4495 
Q 3363 4331 3572 4012 
Q 3781 3694 3797 3291 
L 3216 3247 
Q 3169 3681 2898 3903 
Q 2628 4125 2100 4125 
Q 1550 4125 1298 3923 
Q 1047 3722 1047 3438 
Q 1047 3191 1225 3031 
Q 1400 2872 2139 2705 
Q 2878 2538 3153 2413 
Q 3553 2228 3743 1945 
Q 3934 1663 3934 1294 
Q 3934 928 3725 604 
Q 3516 281 3123 101 
Q 2731 -78 2241 -78 
Q 1619 -78 1198 103 
Q 778 284 539 648 
Q 300 1013 288 1472 
z
" transform="scale(0.015625)"/>
      <path id="ArialMT-2013" d="M -13 1431 
L -13 1884 
L 3547 1884 
L 3547 1431 
L -13 1431 
z
" transform="scale(0.015625)"/>
      <path id="ArialMT-66" d="M 556 0 
L 556 2881 
L 59 2881 
L 59 3319 
L 556 3319 
L 556 3672 
Q 556 4006 616 4169 
Q 697 4388 901 4523 
Q 1106 4659 1475 4659 
Q 1713 4659 2000 4603 
L 1916 4113 
Q 1741 4144 1584 4144 
Q 1328 4144 1222 4034 
Q 1116 3925 1116 3625 
L 1116 3319 
L 1763 3319 
L 1763 2881 
L 1116 2881 
L 1116 0 
L 556 0 
z
" transform="scale(0.015625)"/>
      <path id="ArialMT-76" d="M 1344 0 
L 81 3319 
L 675 3319 
L 1388 1331 
Q 1503 1009 1600 663 
Q 1675 925 1809 1294 
L 2547 3319 
L 3125 3319 
L 1869 0 
L 1344 0 
z
" transform="scale(0.015625)"/>
      <path id="ArialMT-68" d="M 422 0 
L 422 4581 
L 984 4581 
L 984 2938 
Q 1378 3394 1978 3394 
Q 2347 3394 2619 3248 
Q 2891 3103 3008 2847 
Q 3125 2591 3125 2103 
L 3125 0 
L 2563 0 
L 2563 2103 
Q 2563 2525 2380 2717 
Q 2197 2909 1863 2909 
Q 1613 2909 1392 2779 
Q 1172 2650 1078 2428 
Q 984 2206 984 1816 
L 984 0 
L 422 0 
z
" transform="scale(0.015625)"/>
      <path id="ArialMT-6d" d="M 422 0 
L 422 3319 
L 925 3319 
L 925 2853 
Q 1081 3097 1340 3245 
Q 1600 3394 1931 3394 
Q 2300 3394 2536 3241 
Q 2772 3088 2869 2813 
Q 3263 3394 3894 3394 
Q 4388 3394 4653 3120 
Q 4919 2847 4919 2278 
L 4919 0 
L 4359 0 
L 4359 2091 
Q 4359 2428 4304 2576 
Q 4250 2725 4106 2815 
Q 3963 2906 3769 2906 
Q 3419 2906 3187 2673 
Q 2956 2441 2956 1928 
L 2956 0 
L 2394 0 
L 2394 2156 
Q 2394 2531 2256 2718 
Q 2119 2906 1806 2906 
Q 1569 2906 1367 2781 
Q 1166 2656 1075 2415 
Q 984 2175 984 1722 
L 984 0 
L 422 0 
z
" transform="scale(0.015625)"/>
      <path id="ArialMT-75" d="M 2597 0 
L 2597 488 
Q 2209 -75 1544 -75 
Q 1250 -75 995 37 
Q 741 150 617 320 
Q 494 491 444 738 
Q 409 903 409 1263 
L 409 3319 
L 972 3319 
L 972 1478 
Q 972 1038 1006 884 
Q 1059 663 1231 536 
Q 1403 409 1656 409 
Q 1909 409 2131 539 
Q 2353 669 2445 892 
Q 2538 1116 2538 1541 
L 2538 3319 
L 3100 3319 
L 3100 0 
L 2597 0 
z
" transform="scale(0.015625)"/>
      <path id="ArialMT-63" d="M 2588 1216 
L 3141 1144 
Q 3050 572 2676 248 
Q 2303 -75 1759 -75 
Q 1078 -75 664 370 
Q 250 816 250 1647 
Q 250 2184 428 2587 
Q 606 2991 970 3192 
Q 1334 3394 1763 3394 
Q 2303 3394 2647 3120 
Q 2991 2847 3088 2344 
L 2541 2259 
Q 2463 2594 2264 2762 
Q 2066 2931 1784 2931 
Q 1359 2931 1093 2626 
Q 828 2322 828 1663 
Q 828 994 1084 691 
Q 1341 388 1753 388 
Q 2084 388 2306 591 
Q 2528 794 2588 1216 
z
" transform="scale(0.015625)"/>
     </defs>
     <use xlink:href="#ArialMT-54"/>
     <use xlink:href="#ArialMT-61" x="49.958984"/>
     <use xlink:href="#ArialMT-72" x="105.574219"/>
     <use xlink:href="#ArialMT-67" x="138.875"/>
     <use xlink:href="#ArialMT-65" x="194.490234"/>
     <use xlink:href="#ArialMT-74" x="250.105469"/>
     <use xlink:href="#ArialMT-2d" x="277.888672"/>
     <use xlink:href="#ArialMT-77" x="311.189453"/>
     <use xlink:href="#ArialMT-69" x="383.40625"/>
     <use xlink:href="#ArialMT-73" x="405.623047"/>
     <use xlink:href="#ArialMT-65" x="455.623047"/>
     <use xlink:href="#ArialMT-20" x="511.238281"/>
     <use xlink:href="#ArialMT-52" x="539.021484"/>
     <use xlink:href="#ArialMT-4d" x="611.238281"/>
     <use xlink:href="#ArialMT-53" x="694.539062"/>
     <use xlink:href="#ArialMT-45" x="761.238281"/>
     <use xlink:href="#ArialMT-20" x="827.9375"/>
     <use xlink:href="#ArialMT-2013" x="855.720703"/>
     <use xlink:href="#ArialMT-20" x="911.335938"/>
     <use xlink:href="#ArialMT-6c" x="939.119141"/>
     <use xlink:href="#ArialMT-65" x="961.335938"/>
     <use xlink:href="#ArialMT-66" x="1016.951172"/>
     <use xlink:href="#ArialMT-74" x="1044.734375"/>
     <use xlink:href="#ArialMT-20" x="1072.517578"/>
     <use xlink:href="#ArialMT-76" x="1100.300781"/>
     <use xlink:href="#ArialMT-73" x="1150.300781"/>
     <use xlink:href="#ArialMT-20" x="1200.300781"/>
     <use xlink:href="#ArialMT-72" x="1228.083984"/>
     <use xlink:href="#ArialMT-69" x="1261.384766"/>
     <use xlink:href="#ArialMT-67" x="1283.601562"/>
     <use xlink:href="#ArialMT-68" x="1339.216797"/>
     <use xlink:href="#ArialMT-74" x="1394.832031"/>
     <use xlink:href="#ArialMT-20" x="1422.615234"/>
     <use xlink:href="#ArialMT-6d" x="1450.398438"/>
     <use xlink:href="#ArialMT-75" x="1533.699219"/>
     <use xlink:href="#ArialMT-73" x="1589.314453"/>
     <use xlink:href="#ArialMT-63" x="1639.314453"/>
     <use xlink:href="#ArialMT-6c" x="1689.314453"/>
     <use xlink:href="#ArialMT-65" x="1711.53125"/>
     <use xlink:href="#ArialMT-73" x="1767.146484"/>
    </g>
   </g>
   <g id="PathCollection_1">
    <defs>
     <path id="mdee7269cd9" d="M 0 3.162278 
C 0.838646 3.162278 1.643056 2.82908 2.236068 2.236068 
C 2.82908 1.643056 3.162278 0.838646 3.162278 0 
C 3.162278 -0.838646 2.82908 -1.643056 2.236068 -2.236068 
C 1.643056 -2.82908 0.838646 -3.162278 0 -3.162278 
C -0.838646 -3.162278 -1.643056 -2.82908 -2.236068 -2.236068 
C -2.82908 -1.643056 -3.162278 -0.838646 -3.162278 0 
C -3.162278 0.838646 -2.82908 1.643056 -2.236068 2.236068 
C -1.643056 2.82908 -0.838646 3.162278 0 3.162278 
z
" style="stroke: #ff0000; stroke-width: 1.5"/>
    </defs>
    <g clip-path="url(#p3098786b94)">
     <use xlink:href="#mdee7269cd9" x="85.636048" y="345.951809" style="fill: #ff0000; stroke: #ff0000; stroke-width: 1.5"/>
    </g>
   </g>
   <g id="PathCollection_2">
    <g clip-path="url(#p3098786b94)">
     <use xlink:href="#mdee7269cd9" x="128.962601" y="413.922749" style="fill: #ff0000; stroke: #ff0000; stroke-width: 1.5"/>
    </g>
   </g>
   <g id="PathCollection_3">
    <g clip-path="url(#p3098786b94)">
     <use xlink:href="#mdee7269cd9" x="125.982656" y="418.024291" style="fill: #ff0000; stroke: #ff0000; stroke-width: 1.5"/>
    </g>
   </g>
   <g id="legend_1">
    <g id="patch_6">
     <path d="M 377.735855 367.440844 
L 547.00523 367.440844 
Q 550.30523 367.440844 550.30523 364.140844 
L 550.30523 248.898656 
Q 550.30523 245.598656 547.00523 245.598656 
L 377.735855 245.598656 
Q 374.435855 245.598656 374.435855 248.898656 
L 374.435855 364.140844 
Q 374.435855 367.440844 377.735855 367.440844 
z
" style="fill: #ffffff; opacity: 0.8; stroke: #cccccc; stroke-width: 1.5; stroke-linejoin: miter"/>
    </g>
    <g id="line2d_19">
     <path d="M 381.035855 258.234047 
L 397.535855 258.234047 
L 414.035855 258.234047 
" style="fill: none; stroke-dasharray: 7.4,3.2; stroke-dashoffset: 0; stroke: #7ab800; stroke-opacity: 0.8; stroke-width: 2"/>
    </g>
    <g id="text_18">
     <!-- CatBoost -->
     <g style="fill: #262626" transform="translate(427.235855 264.009047) scale(0.165 -0.165)">
      <defs>
       <path id="ArialMT-43" d="M 3763 1606 
L 4369 1453 
Q 4178 706 3683 314 
Q 3188 -78 2472 -78 
Q 1731 -78 1267 223 
Q 803 525 561 1097 
Q 319 1669 319 2325 
Q 319 3041 592 3573 
Q 866 4106 1370 4382 
Q 1875 4659 2481 4659 
Q 3169 4659 3637 4309 
Q 4106 3959 4291 3325 
L 3694 3184 
Q 3534 3684 3231 3912 
Q 2928 4141 2469 4141 
Q 1941 4141 1586 3887 
Q 1231 3634 1087 3207 
Q 944 2781 944 2328 
Q 944 1744 1114 1308 
Q 1284 872 1643 656 
Q 2003 441 2422 441 
Q 2931 441 3284 734 
Q 3638 1028 3763 1606 
z
" transform="scale(0.015625)"/>
      </defs>
      <use xlink:href="#ArialMT-43"/>
      <use xlink:href="#ArialMT-61" x="72.216797"/>
      <use xlink:href="#ArialMT-74" x="127.832031"/>
      <use xlink:href="#ArialMT-42" x="155.615234"/>
      <use xlink:href="#ArialMT-6f" x="222.314453"/>
      <use xlink:href="#ArialMT-6f" x="277.929688"/>
      <use xlink:href="#ArialMT-73" x="333.544922"/>
      <use xlink:href="#ArialMT-74" x="383.544922"/>
     </g>
    </g>
    <g id="line2d_20">
     <path d="M 381.035855 281.573813 
L 397.535855 281.573813 
L 414.035855 281.573813 
" style="fill: none; stroke-dasharray: 7.4,3.2; stroke-dashoffset: 0; stroke: #4b4f54; stroke-opacity: 0.8; stroke-width: 2"/>
    </g>
    <g id="text_19">
     <!-- XGBoost -->
     <g style="fill: #262626" transform="translate(427.235855 287.348813) scale(0.165 -0.165)">
      <defs>
       <path id="ArialMT-58" d="M 28 0 
L 1800 2388 
L 238 4581 
L 959 4581 
L 1791 3406 
Q 2050 3041 2159 2844 
Q 2313 3094 2522 3366 
L 3444 4581 
L 4103 4581 
L 2494 2422 
L 4228 0 
L 3478 0 
L 2325 1634 
Q 2228 1775 2125 1941 
Q 1972 1691 1906 1597 
L 756 0 
L 28 0 
z
" transform="scale(0.015625)"/>
      </defs>
      <use xlink:href="#ArialMT-58"/>
      <use xlink:href="#ArialMT-47" x="66.699219"/>
      <use xlink:href="#ArialMT-42" x="144.482422"/>
      <use xlink:href="#ArialMT-6f" x="211.181641"/>
      <use xlink:href="#ArialMT-6f" x="266.796875"/>
      <use xlink:href="#ArialMT-73" x="322.412109"/>
      <use xlink:href="#ArialMT-74" x="372.412109"/>
     </g>
    </g>
    <g id="line2d_21">
     <path d="M 381.035855 304.913578 
L 397.535855 304.913578 
L 414.035855 304.913578 
" style="fill: none; stroke-dasharray: 7.4,3.2; stroke-dashoffset: 0; stroke: #8e44ad; stroke-opacity: 0.8; stroke-width: 2"/>
    </g>
    <g id="text_20">
     <!-- HistGB -->
     <g style="fill: #262626" transform="translate(427.235855 310.688578) scale(0.165 -0.165)">
      <use xlink:href="#ArialMT-48"/>
      <use xlink:href="#ArialMT-69" x="72.216797"/>
      <use xlink:href="#ArialMT-73" x="94.433594"/>
      <use xlink:href="#ArialMT-74" x="144.433594"/>
      <use xlink:href="#ArialMT-47" x="172.216797"/>
      <use xlink:href="#ArialMT-42" x="250"/>
     </g>
    </g>
    <g id="line2d_22">
     <path d="M 381.035855 328.253344 
L 397.535855 328.253344 
L 414.035855 328.253344 
" style="fill: none; stroke: #0060a9; stroke-width: 2.5; stroke-linecap: round"/>
    </g>
    <g id="text_21">
     <!-- Ensemble Left -->
     <g style="fill: #262626" transform="translate(427.235855 334.028344) scale(0.165 -0.165)">
      <use xlink:href="#ArialMT-45"/>
      <use xlink:href="#ArialMT-6e" x="66.699219"/>
      <use xlink:href="#ArialMT-73" x="122.314453"/>
      <use xlink:href="#ArialMT-65" x="172.314453"/>
      <use xlink:href="#ArialMT-6d" x="227.929688"/>
      <use xlink:href="#ArialMT-62" x="311.230469"/>
      <use xlink:href="#ArialMT-6c" x="366.845703"/>
      <use xlink:href="#ArialMT-65" x="389.0625"/>
      <use xlink:href="#ArialMT-20" x="444.677734"/>
      <use xlink:href="#ArialMT-4c" x="472.460938"/>
      <use xlink:href="#ArialMT-65" x="528.076172"/>
      <use xlink:href="#ArialMT-66" x="583.691406"/>
      <use xlink:href="#ArialMT-74" x="611.474609"/>
     </g>
    </g>
    <g id="line2d_23">
     <path d="M 381.035855 351.593109 
L 397.535855 351.593109 
L 414.035855 351.593109 
" style="fill: none; stroke: #f48024; stroke-width: 2.5; stroke-linecap: round"/>
    </g>
    <g id="text_22">
     <!-- Ensemble Right -->
     <g style="fill: #262626" transform="translate(427.235855 357.368109) scale(0.165 -0.165)">
      <use xlink:href="#ArialMT-45"/>
      <use xlink:href="#ArialMT-6e" x="66.699219"/>
      <use xlink:href="#ArialMT-73" x="122.314453"/>
      <use xlink:href="#ArialMT-65" x="172.314453"/>
      <use xlink:href="#ArialMT-6d" x="227.929688"/>
      <use xlink:href="#ArialMT-62" x="311.230469"/>
      <use xlink:href="#ArialMT-6c" x="366.845703"/>
      <use xlink:href="#ArialMT-65" x="389.0625"/>
      <use xlink:href="#ArialMT-20" x="444.677734"/>
      <use xlink:href="#ArialMT-52" x="472.460938"/>
      <use xlink:href="#ArialMT-69" x="544.677734"/>
      <use xlink:href="#ArialMT-67" x="566.894531"/>
      <use xlink:href="#ArialMT-68" x="622.509766"/>
      <use xlink:href="#ArialMT-74" x="678.125"/>
     </g>
    </g>
   </g>
  </g>
 </g>
 <defs>
  <clipPath id="p3098786b94">
   <path d="M 351.714 306.51975 
C 351.714 287.515484 347.970574 268.69601 340.697956 251.138358 
C 333.425338 233.580705 322.764963 217.626326 309.326917 204.18828 
C 295.888872 190.750235 279.934492 180.089859 262.37684 172.817241 
C 244.819187 165.544624 225.999714 161.801198 206.995448 161.801198 
C 187.991181 161.801198 169.171708 165.544624 151.614055 172.817241 
C 134.056403 180.089859 118.102023 190.750235 104.663978 204.18828 
C 91.225932 217.626326 80.565557 233.580705 73.292939 251.138358 
C 66.020321 268.69601 62.276895 287.515484 62.276895 306.51975 
C 62.276895 325.524016 66.020321 344.34349 73.292939 361.901142 
C 80.565557 379.458795 91.225932 395.413174 104.663978 408.85122 
C 118.102023 422.289265 134.056403 432.949641 151.614055 440.222259 
C 169.171708 447.494876 187.991181 451.238302 206.995448 451.238302 
C 225.999714 451.238302 244.819187 447.494876 262.37684 440.222259 
C 279.934492 432.949641 295.888872 422.289265 309.326917 408.85122 
C 322.764963 395.413174 333.425338 379.458795 340.697956 361.901142 
C 347.970574 344.34349 351.714 325.524016 351.714 306.51975 
M 206.995448 306.51975 
C 206.995448 306.51975 206.995448 306.51975 206.995448 306.51975 
C 206.995448 306.51975 206.995448 306.51975 206.995448 306.51975 
C 206.995448 306.51975 206.995448 306.51975 206.995448 306.51975 
C 206.995448 306.51975 206.995448 306.51975 206.995448 306.51975 
C 206.995448 306.51975 206.995448 306.51975 206.995448 306.51975 
C 206.995448 306.51975 206.995448 306.51975 206.995448 306.51975 
C 206.995448 306.51975 206.995448 306.51975 206.995448 306.51975 
C 206.995448 306.51975 206.995448 306.51975 206.995448 306.51975 
C 206.995448 306.51975 206.995448 306.51975 206.995448 306.51975 
C 206.995448 306.51975 206.995448 306.51975 206.995448 306.51975 
C 206.995448 306.51975 206.995448 306.51975 206.995448 306.51975 
C 206.995448 306.51975 206.995448 306.51975 206.995448 306.51975 
C 206.995448 306.51975 206.995448 306.51975 206.995448 306.51975 
C 206.995448 306.51975 206.995448 306.51975 206.995448 306.51975 
C 206.995448 306.51975 206.995448 306.51975 206.995448 306.51975 
C 206.995448 306.51975 206.995448 306.51975 206.995448 306.51975 
z
"/>
  </clipPath>
 </defs>
</svg>
